{
    "accessors": {
        "accessor_21": {
            "bufferView": "bufferView_29",
            "byteOffset": 0,
            "byteStride": 0,
            "componentType": 5123,
            "count": 2376,
            "type": "SCALAR"
        },
        "accessor_23": {
            "bufferView": "bufferView_30",
            "byteOffset": 0,
            "byteStride": 12,
            "componentType": 5126,
            "count": 2376,
            "max": [
                33.4704,
                158.394,
                -12.879
            ],
            "min": [
                -33.3105,
                94.4932,
                -21.3273
            ],
            "type": "VEC3"
        },
        "accessor_25": {
            "bufferView": "bufferView_30",
            "byteOffset": 28512,
            "byteStride": 12,
            "componentType": 5126,
            "count": 2376,
            "max": [
                0.879695,
                0.0520888,
                0.999995
            ],
            "min": [
                -0.739214,
                -0.101196,
                0.475376
            ],
            "type": "VEC3"
        },
        "accessor_27": {
            "bufferView": "bufferView_30",
            "byteOffset": 57024,
            "byteStride": 8,
            "componentType": 5126,
            "count": 2376,
            "max": [
                35.5019,
                32.4506
            ],
            "min": [
                -34.5019,
                -31.4506
            ],
            "type": "VEC2"
        }
    },
    "animations": {},
    "asset": {
        "generator": "collada2gltf@cf6371beb0bdc18ba603378d5e40c966da53d385",
        "premultipliedAlpha": true,
        "profile": {
            "api": "WebGL",
            "version": "1.0.2"
        },
        "version": "1.0"
    },
    "bufferViews": {
        "bufferView_29": {
            "buffer": "puppet-backdrop",
            "byteLength": 4752,
            "byteOffset": 0,
            "target": 34963
        },
        "bufferView_30": {
            "buffer": "puppet-backdrop",
            "byteLength": 76032,
            "byteOffset": 4752,
            "target": 34962
        }
    },
    "buffers": {
        "puppet-backdrop": {
            "byteLength": 80784,
            "type": "arraybuffer",
            "uri": "puppet-backdrop.bin"
        }
    },
    "cameras": {
        "Camera-camera": {
            "name": "Camera",
            "perspective": {
                "aspect_ratio": 1.77778,
                "yfov": 0.482375,
                "zfar": 100,
                "znear": 0.1
            },
            "type": "perspective"
        }
    },
    "materials": {
        "Puppet_Cloth-effect": {
            "extensions": {
                "KHR_materials_common": {
                    "doubleSided": false,
                    "jointCount": 0,
                    "technique": "PHONG",
                    "transparent": false,
                    "values": {
                        "ambient": [
                            0,
                            0,
                            0,
                            1
                        ],
                        "diffuse": [
                            0.0509804,
                            0.0509804,
                            0.0509804,
                            1
                        ],
                        "emission": [
                            0,
                            0,
                            0,
                            1
                        ],
                        "shininess": 40,
                        "specular": [
                            0.25098,
                            0.25098,
                            0.25098,
                            1
                        ]
                    }
                }
            },
            "name": "Puppet_Cloth"
        }
    },
    "meshes": {
        "OldPuppet1_1-mesh": {
            "name": "OldPuppet1_1",
            "primitives": [
                {
                    "attributes": {
                        "NORMAL": "accessor_25",
                        "POSITION": "accessor_23",
                        "TEXCOORD_0": "accessor_27"
                    },
                    "indices": "accessor_21",
                    "material": "Puppet_Cloth-effect",
                    "mode": 4
                }
            ]
        }
    },
    "nodes": {
        "Camera": {
            "camera": "Camera-camera",
            "children": [],
            "matrix": [
                0.685921,
                0.727676,
                0,
                0,
                -0.324014,
                0.305421,
                0.895396,
                0,
                0.651558,
                -0.61417,
                0.445271,
                0,
                7.48113,
                -6.50764,
                5.34367,
                1
            ],
            "name": "Camera"
        },
        "OldPuppet1_1": {
            "children": [],
            "matrix": [
                0.1,
                0,
                0,
                0,
                0,
                -1.62921e-008,
                0.1,
                0,
                0,
                -0.1,
                -1.62921e-008,
                0,
                0.0247512,
                -0.347046,
                -9.33064,
                1
            ],
            "meshes": [
                "OldPuppet1_1-mesh"
            ],
            "name": "OldPuppet1_1"
        },
        "node_3": {
            "children": [
                "Camera",
                "OldPuppet1_1"
            ],
            "matrix": [
                1,
                0,
                0,
                0,
                0,
                0,
                -1,
                0,
                0,
                1,
                0,
                0,
                0,
                0,
                0,
                1
            ],
            "name": "Y_UP_Transform"
        }
    },
    "scene": "defaultScene",
    "scenes": {
        "defaultScene": {
            "nodes": [
                "node_3"
            ]
        }
    },
    "skins": {}
}