{
    "accessors": {
        "accessor_21": {
            "bufferView": "bufferView_29",
            "byteOffset": 0,
            "byteStride": 0,
            "componentType": 5123,
            "count": 51357,
            "type": "SCALAR"
        },
        "accessor_23": {
            "bufferView": "bufferView_30",
            "byteOffset": 0,
            "byteStride": 12,
            "componentType": 5126,
            "count": 51357,
            "max": [
                34.6558,
                182.366,
                25.9296
            ],
            "min": [
                -34.6558,
                93.6681,
                23.3284
            ],
            "type": "VEC3"
        },
        "accessor_25": {
            "bufferView": "bufferView_30",
            "byteOffset": 616284,
            "byteStride": 12,
            "componentType": 5126,
            "count": 51357,
            "max": [
                1,
                1,
                1
            ],
            "min": [
                -1,
                -0.999994,
                -1
            ],
            "type": "VEC3"
        },
        "accessor_27": {
            "bufferView": "bufferView_30",
            "byteOffset": 1232568,
            "byteStride": 8,
            "componentType": 5126,
            "count": 51357,
            "max": [
                30.4356,
                38.8086
            ],
            "min": [
                -29.4356,
                -37.8086
            ],
            "type": "VEC2"
        }
    },
    "animations": {},
    "asset": {
        "generator": "collada2gltf@cf6371beb0bdc18ba603378d5e40c966da53d385",
        "premultipliedAlpha": true,
        "profile": {
            "api": "WebGL",
            "version": "1.0.2"
        },
        "version": "1.0"
    },
    "bufferViews": {
        "bufferView_29": {
            "buffer": "puppet-frame",
            "byteLength": 102716,
            "byteOffset": 0,
            "target": 34963
        },
        "bufferView_30": {
            "buffer": "puppet-frame",
            "byteLength": 1643424,
            "byteOffset": 102716,
            "target": 34962
        }
    },
    "buffers": {
        "puppet-frame": {
            "byteLength": 1746140,
            "type": "arraybuffer",
            "uri": "puppet-frame.bin"
        }
    },
    "cameras": {
        "Camera-camera": {
            "name": "Camera",
            "perspective": {
                "aspect_ratio": 1.77778,
                "yfov": 0.482375,
                "zfar": 100,
                "znear": 0.1
            },
            "type": "perspective"
        }
    },
    "materials": {
        "Frame-effect": {
            "extensions": {
                "KHR_materials_common": {
                    "doubleSided": false,
                    "jointCount": 0,
                    "technique": "PHONG",
                    "transparent": false,
                    "values": {
                        "ambient": [
                            0,
                            0,
                            0,
                            1
                        ],
                        "diffuse": [
                            0.337255,
                            0.133333,
                            0.0509804,
                            1
                        ],
                        "emission": [
                            0,
                            0,
                            0,
                            1
                        ],
                        "shininess": 35,
                        "specular": [
                            0.286275,
                            0.145098,
                            0.0196078,
                            1
                        ]
                    }
                }
            },
            "name": "Frame"
        }
    },
    "meshes": {
        "OldPuppet5_5-mesh": {
            "name": "OldPuppet5_5",
            "primitives": [
                {
                    "attributes": {
                        "NORMAL": "accessor_25",
                        "POSITION": "accessor_23",
                        "TEXCOORD_0": "accessor_27"
                    },
                    "indices": "accessor_21",
                    "material": "Frame-effect",
                    "mode": 4
                }
            ]
        }
    },
    "nodes": {
        "Camera": {
            "camera": "Camera-camera",
            "children": [],
            "matrix": [
                0.685921,
                0.727676,
                0,
                0,
                -0.324014,
                0.305421,
                0.895396,
                0,
                0.651558,
                -0.61417,
                0.445271,
                0,
                7.48113,
                -6.50764,
                5.34367,
                1
            ],
            "name": "Camera"
        },
        "OldPuppet5_5": {
            "children": [],
            "matrix": [
                0.1,
                0,
                0,
                0,
                0,
                -1.62921e-008,
                0.1,
                0,
                0,
                -0.1,
                -1.62921e-008,
                0,
                0.0247512,
                -0.347046,
                -9.33064,
                1
            ],
            "meshes": [
                "OldPuppet5_5-mesh"
            ],
            "name": "OldPuppet5_5"
        },
        "node_3": {
            "children": [
                "Camera",
                "OldPuppet5_5"
            ],
            "matrix": [
                1,
                0,
                0,
                0,
                0,
                0,
                -1,
                0,
                0,
                1,
                0,
                0,
                0,
                0,
                0,
                1
            ],
            "name": "Y_UP_Transform"
        }
    },
    "scene": "defaultScene",
    "scenes": {
        "defaultScene": {
            "nodes": [
                "node_3"
            ]
        }
    },
    "skins": {}
}